<?xml version="1.0" encoding="UTF-8"?>
<svg xmlns="http://www.w3.org/2000/svg" xmlns:xlink="http://www.w3.org/1999/xlink" width="1920pt" height="1080pt" viewBox="0 0 1920 1080" version="1.1">
<g id="surface11">
<rect x="0" y="0" width="1920" height="1080" style="fill:rgb(0%,0%,0%);fill-opacity:1;stroke:none;"/>
<path style="fill:none;stroke-width:0.001;stroke-linecap:butt;stroke-linejoin:miter;stroke:rgb(100%,100%,100%);stroke-opacity:1;stroke-miterlimit:10;" d="M 0.388889 1 L 0.404763 0.992065 L 0.420634 1 L 0.436509 0.992065 L 0.436509 0.97619 L 0.420634 0.968254 L 0.404763 0.97619 L 0.388889 0.968254 L 0.388889 0.95238 L 0.404763 0.944444 L 0.404763 0.92857 L 0.388889 0.920634 L 0.388889 0.904763 L 0.404763 0.896824 L 0.420634 0.904763 L 0.420634 0.920634 L 0.436509 0.92857 L 0.45238 0.920634 L 0.468254 0.92857 L 0.468254 0.944444 L 0.45238 0.95238 L 0.45238 0.968254 L 0.468254 0.97619 L 0.484125 0.968254 L 0.484125 0.95238 L 0.5 0.944444 L 0.515875 0.95238 L 0.531746 0.944444 L 0.531746 0.92857 L 0.515875 0.920634 L 0.515875 0.904763 L 0.531746 0.896824 L 0.54762 0.904763 L 0.54762 0.920634 L 0.563491 0.92857 L 0.579366 0.920634 L 0.579366 0.904763 L 0.595237 0.896824 L 0.611111 0.904763 L 0.626986 0.896824 L 0.626986 0.880953 L 0.611111 0.873014 L 0.595237 0.880953 L 0.579366 0.873014 L 0.579366 0.857143 L 0.563491 0.849208 L 0.54762 0.857143 L 0.54762 0.873014 L 0.531746 0.880953 L 0.515875 0.873014 L 0.515875 0.857143 L 0.531746 0.849208 L 0.531746 0.833333 L 0.515875 0.825398 L 0.5 0.833333 L 0.484125 0.825398 L 0.484125 0.809523 L 0.468254 0.801588 L 0.45238 0.809523 L 0.45238 0.825398 L 0.468254 0.833333 L 0.468254 0.849208 L 0.45238 0.857143 L 0.436509 0.849208 L 0.420634 0.857143 L 0.420634 0.873014 L 0.404763 0.880953 L 0.388889 0.873014 L 0.388889 0.857143 L 0.404763 0.849208 L 0.404763 0.833333 L 0.388889 0.825398 L 0.388889 0.809523 L 0.404763 0.801588 L 0.420634 0.809523 L 0.436509 0.801588 L 0.436509 0.785713 L 0.420634 0.777778 L 0.404763 0.785713 L 0.388889 0.777778 L 0.388889 0.761903 L 0.404763 0.753968 L 0.404763 0.738097 L 0.388889 0.730158 L 0.388889 0.714287 L 0.404763 0.706348 L 0.420634 0.714287 L 0.420634 0.730158 L 0.436509 0.738097 L 0.45238 0.730158 L 0.45238 0.714287 L 0.468254 0.706348 L 0.484125 0.714287 L 0.5 0.706348 L 0.5 0.690477 L 0.484125 0.682541 L 0.468254 0.690477 L 0.45238 0.682541 L 0.45238 0.666667 L 0.436509 0.658731 L 0.420634 0.666667 L 0.420634 0.682541 L 0.404763 0.690477 L 0.388889 0.682541 L 0.388889 0.666667 L 0.404763 0.658731 L 0.404763 0.642857 L 0.388889 0.634921 L 0.388889 0.619047 L 0.404763 0.611111 L 0.420634 0.619047 L 0.436509 0.611111 L 0.436509 0.595237 L 0.420634 0.587301 L 0.404763 0.595237 L 0.388889 0.587301 L 0.388889 0.57143 L 0.404763 0.563491 L 0.404763 0.54762 L 0.388889 0.539681 L 0.388889 0.52381 L 0.404763 0.515875 L 0.420634 0.52381 L 0.420634 0.539681 L 0.436509 0.54762 L 0.45238 0.539681 L 0.468254 0.54762 L 0.468254 0.563491 L 0.45238 0.57143 L 0.45238 0.587301 L 0.468254 0.595237 L 0.484125 0.587301 L 0.484125 0.57143 L 0.5 0.563491 L 0.515875 0.57143 L 0.515875 0.587301 L 0.531746 0.595237 L 0.54762 0.587301 L 0.563491 0.595237 L 0.563491 0.611111 L 0.54762 0.619047 L 0.531746 0.611111 L 0.515875 0.619047 L 0.515875 0.634921 L 0.531746 0.642857 L 0.531746 0.658731 L 0.515875 0.666667 L 0.515875 0.682541 L 0.531746 0.690477 L 0.54762 0.682541 L 0.54762 0.666667 L 0.563491 0.658731 L 0.579366 0.666667 L 0.595237 0.658731 L 0.595237 0.642857 L 0.579366 0.634921 L 0.579366 0.619047 L 0.595237 0.611111 L 0.611111 0.619047 L 0.611111 0.634921 L 0.626986 0.642857 L 0.642857 0.634921 L 0.658731 0.642857 L 0.658731 0.658731 L 0.642857 0.666667 L 0.642857 0.682541 L 0.658731 0.690477 L 0.674602 0.682541 L 0.674602 0.666667 L 0.690477 0.658731 L 0.706348 0.666667 L 0.706348 0.682541 L 0.722222 0.690477 L 0.738097 0.682541 L 0.753968 0.690477 L 0.753968 0.706348 L 0.738097 0.714287 L 0.722222 0.706348 L 0.706348 0.714287 L 0.706348 0.730158 L 0.690477 0.738097 L 0.674602 0.730158 L 0.674602 0.714287 L 0.658731 0.706348 L 0.642857 0.714287 L 0.642857 0.730158 L 0.658731 0.738097 L 0.658731 0.753968 L 0.642857 0.761903 L 0.642857 0.777778 L 0.658731 0.785713 L 0.674602 0.777778 L 0.690477 0.785713 L 0.690477 0.801588 L 0.674602 0.809523 L 0.658731 0.801588 L 0.642857 0.809523 L 0.642857 0.825398 L 0.658731 0.833333 L 0.658731 0.849208 L 0.642857 0.857143 L 0.642857 0.873014 L 0.658731 0.880953 L 0.674602 0.873014 L 0.674602 0.857143 L 0.690477 0.849208 L 0.706348 0.857143 L 0.722222 0.849208 L 0.722222 0.833333 L 0.706348 0.825398 L 0.706348 0.809523 L 0.722222 0.801588 L 0.738097 0.809523 L 0.738097 0.825398 L 0.753968 0.833333 L 0.769842 0.825398 L 0.769842 0.809523 L 0.785713 0.801588 L 0.801588 0.809523 L 0.817459 0.801588 L 0.817459 0.785713 L 0.801588 0.777778 L 0.785713 0.785713 L 0.769842 0.777778 L 0.769842 0.761903 L 0.785713 0.753968 L 0.785713 0.738097 L 0.769842 0.730158 L 0.769842 0.714287 L 0.785713 0.706348 L 0.801588 0.714287 L 0.801588 0.730158 L 0.817459 0.738097 L 0.833333 0.730158 L 0.849208 0.738097 L 0.849208 0.753968 L 0.833333 0.761903 L 0.833333 0.777778 L 0.849208 0.785713 L 0.865079 0.777778 L 0.865079 0.761903 L 0.880953 0.753968 L 0.896824 0.761903 L 0.912699 0.753968 L 0.912699 0.738097 L 0.896824 0.730158 L 0.896824 0.714287 L 0.912699 0.706348 L 0.92857 0.714287 L 0.92857 0.730158 L 0.944444 0.738097 L 0.960319 0.730158 L 0.960319 0.714287 L 0.97619 0.706348 L 0.992065 0.714287 L 1.007935 0.706348 L 1.007935 0.690477 L 0.992065 0.682541 L 0.97619 0.690477 L 0.960319 0.682541 L 0.960319 0.666667 L 0.944444 0.658731 L 0.92857 0.666667 L 0.92857 0.682541 L 0.912699 0.690477 L 0.896824 0.682541 L 0.896824 0.666667 L 0.912699 0.658731 L 0.912699 0.642857 L 0.896824 0.634921 L 0.896824 0.619047 L 0.912699 0.611111 L 0.92857 0.619047 L 0.944444 0.611111 L 0.944444 0.595237 L 0.92857 0.587301 L 0.912699 0.595237 L 0.896824 0.587301 L 0.896824 0.57143 L 0.912699 0.563491 L 0.912699 0.54762 L 0.896824 0.539681 L 0.896824 0.52381 L 0.912699 0.515875 L 0.92857 0.52381 L 0.92857 0.539681 L 0.944444 0.54762 L 0.960319 0.539681 L 0.97619 0.54762 L 0.97619 0.563491 L 0.960319 0.57143 L 0.960319 0.587301 L 0.97619 0.595237 L 0.992065 0.587301 L 0.992065 0.57143 L 1.007935 0.563491 L 1.02381 0.57143 L 1.02381 0.587301 L 1.039681 0.595237 L 1.055556 0.587301 L 1.07143 0.595237 L 1.07143 0.611111 L 1.055556 0.619047 L 1.039681 0.611111 L 1.02381 0.619047 L 1.02381 0.634921 L 1.039681 0.642857 L 1.039681 0.658731 L 1.02381 0.666667 L 1.02381 0.682541 L 1.039681 0.690477 L 1.055556 0.682541 L 1.055556 0.666667 L 1.07143 0.658731 L 1.087301 0.666667 L 1.103176 0.658731 L 1.103176 0.642857 L 1.087301 0.634921 L 1.087301 0.619047 L 1.103176 0.611111 L 1.119047 0.619047 L 1.119047 0.634921 L 1.134921 0.642857 L 1.150792 0.634921 L 1.150792 0.619047 L 1.166667 0.611111 L 1.182541 0.619047 L 1.198412 0.611111 L 1.198412 0.595237 L 1.182541 0.587301 L 1.166667 0.595237 L 1.150792 0.587301 L 1.150792 0.57143 L 1.166667 0.563491 L 1.166667 0.54762 L 1.150792 0.539681 L 1.150792 0.52381 L 1.166667 0.515875 L 1.182541 0.52381 L 1.182541 0.539681 L 1.198412 0.54762 L 1.214287 0.539681 L 1.230158 0.54762 L 1.230158 0.563491 L 1.214287 0.57143 L 1.214287 0.587301 L 1.230158 0.595237 L 1.246032 0.587301 L 1.246032 0.57143 L 1.261903 0.563491 L 1.277778 0.57143 L 1.293652 0.563491 L 1.293652 0.54762 L 1.277778 0.539681 L 1.277778 0.52381 L 1.293652 0.515875 L 1.309523 0.52381 L 1.309523 0.539681 L 1.325398 0.54762 L 1.341269 0.539681 L 1.341269 0.52381 L 1.357143 0.515875 L 1.373014 0.52381 L 1.388889 0.515875 L 1.388889 0.5 L 1.373014 0.492065 L 1.357143 0.5 L 1.341269 0.492065 L 1.341269 0.47619 L 1.325398 0.468254 L 1.309523 0.47619 L 1.309523 0.492065 L 1.293652 0.5 L 1.277778 0.492065 L 1.277778 0.47619 L 1.293652 0.468254 L 1.293652 0.45238 L 1.277778 0.444444 L 1.261903 0.45238 L 1.246032 0.444444 L 1.246032 0.42857 L 1.230158 0.420634 L 1.214287 0.42857 L 1.214287 0.444444 L 1.230158 0.45238 L 1.230158 0.468254 L 1.214287 0.47619 L 1.198412 0.468254 L 1.182541 0.47619 L 1.182541 0.492065 L 1.166667 0.5 L 1.150792 0.492065 L 1.150792 0.47619 L 1.166667 0.468254 L 1.166667 0.45238 L 1.150792 0.444444 L 1.150792 0.42857 L 1.166667 0.420634 L 1.182541 0.42857 L 1.198412 0.420634 L 1.198412 0.404763 L 1.182541 0.396824 L 1.166667 0.404763 L 1.150792 0.396824 L 1.150792 0.380953 L 1.134921 0.373014 L 1.119047 0.380953 L 1.119047 0.396824 L 1.103176 0.404763 L 1.087301 0.396824 L 1.087301 0.380953 L 1.103176 0.373014 L 1.103176 0.357143 L 1.087301 0.349208 L 1.07143 0.357143 L 1.055556 0.349208 L 1.055556 0.333333 L 1.039681 0.325398 L 1.02381 0.333333 L 1.02381 0.349208 L 1.039681 0.357143 L 1.039681 0.373014 L 1.02381 0.380953 L 1.02381 0.396824 L 1.039681 0.404763 L 1.055556 0.396824 L 1.07143 0.404763 L 1.07143 0.420634 L 1.055556 0.42857 L 1.039681 0.420634 L 1.02381 0.42857 L 1.02381 0.444444 L 1.007935 0.45238 L 0.992065 0.444444 L 0.992065 0.42857 L 0.97619 0.420634 L 0.960319 0.42857 L 0.960319 0.444444 L 0.97619 0.45238 L 0.97619 0.468254 L 0.960319 0.47619 L 0.944444 0.468254 L 0.92857 0.47619 L 0.92857 0.492065 L 0.912699 0.5 L 0.896824 0.492065 L 0.896824 0.47619 L 0.912699 0.468254 L 0.912699 0.45238 L 0.896824 0.444444 L 0.896824 0.42857 L 0.912699 0.420634 L 0.92857 0.42857 L 0.944444 0.420634 L 0.944444 0.404763 L 0.92857 0.396824 L 0.912699 0.404763 L 0.896824 0.396824 L 0.896824 0.380953 L 0.912699 0.373014 L 0.912699 0.357143 L 0.896824 0.349208 L 0.896824 0.333333 L 0.912699 0.325398 L 0.92857 0.333333 L 0.92857 0.349208 L 0.944444 0.357143 L 0.960319 0.349208 L 0.960319 0.333333 L 0.97619 0.325398 L 0.992065 0.333333 L 1.007935 0.325398 L 1.007935 0.309523 L 0.992065 0.301588 L 0.97619 0.309523 L 0.960319 0.301588 L 0.960319 0.285713 L 0.944444 0.277778 L 0.92857 0.285713 L 0.92857 0.301588 L 0.912699 0.309523 L 0.896824 0.301588 L 0.896824 0.285713 L 0.912699 0.277778 L 0.912699 0.261903 L 0.896824 0.253968 L 0.880953 0.261903 L 0.865079 0.253968 L 0.865079 0.238097 L 0.849208 0.230158 L 0.833333 0.238097 L 0.833333 0.253968 L 0.849208 0.261903 L 0.849208 0.277778 L 0.833333 0.285713 L 0.817459 0.277778 L 0.801588 0.285713 L 0.801588 0.301588 L 0.785713 0.309523 L 0.769842 0.301588 L 0.769842 0.285713 L 0.785713 0.277778 L 0.785713 0.261903 L 0.769842 0.253968 L 0.769842 0.238097 L 0.785713 0.230158 L 0.801588 0.238097 L 0.817459 0.230158 L 0.817459 0.214287 L 0.801588 0.206348 L 0.785713 0.214287 L 0.769842 0.206348 L 0.769842 0.190477 L 0.753968 0.182541 L 0.738097 0.190477 L 0.738097 0.206348 L 0.722222 0.214287 L 0.706348 0.206348 L 0.706348 0.190477 L 0.722222 0.182541 L 0.722222 0.166667 L 0.706348 0.158731 L 0.690477 0.166667 L 0.674602 0.158731 L 0.674602 0.142857 L 0.658731 0.134921 L 0.642857 0.142857 L 0.642857 0.158731 L 0.658731 0.166667 L 0.658731 0.182541 L 0.642857 0.190477 L 0.642857 0.206348 L 0.658731 0.214287 L 0.674602 0.206348 L 0.690477 0.214287 L 0.690477 0.230158 L 0.674602 0.238097 L 0.658731 0.230158 L 0.642857 0.238097 L 0.642857 0.253968 L 0.658731 0.261903 L 0.658731 0.277778 L 0.642857 0.285713 L 0.642857 0.301588 L 0.658731 0.309523 L 0.674602 0.301588 L 0.674602 0.285713 L 0.690477 0.277778 L 0.706348 0.285713 L 0.706348 0.301588 L 0.722222 0.309523 L 0.738097 0.301588 L 0.753968 0.309523 L 0.753968 0.325398 L 0.738097 0.333333 L 0.722222 0.325398 L 0.706348 0.333333 L 0.706348 0.349208 L 0.690477 0.357143 L 0.674602 0.349208 L 0.674602 0.333333 L 0.658731 0.325398 L 0.642857 0.333333 L 0.642857 0.349208 L 0.658731 0.357143 L 0.658731 0.373014 L 0.642857 0.380953 L 0.626986 0.373014 L 0.611111 0.380953 L 0.611111 0.396824 L 0.595237 0.404763 L 0.579366 0.396824 L 0.579366 0.380953 L 0.595237 0.373014 L 0.595237 0.357143 L 0.579366 0.349208 L 0.563491 0.357143 L 0.54762 0.349208 L 0.54762 0.333333 L 0.531746 0.325398 L 0.515875 0.333333 L 0.515875 0.349208 L 0.531746 0.357143 L 0.531746 0.373014 L 0.515875 0.380953 L 0.515875 0.396824 L 0.531746 0.404763 L 0.54762 0.396824 L 0.563491 0.404763 L 0.563491 0.420634 L 0.54762 0.42857 L 0.531746 0.420634 L 0.515875 0.42857 L 0.515875 0.444444 L 0.5 0.45238 L 0.484125 0.444444 L 0.484125 0.42857 L 0.468254 0.420634 L 0.45238 0.42857 L 0.45238 0.444444 L 0.468254 0.45238 L 0.468254 0.468254 L 0.45238 0.47619 L 0.436509 0.468254 L 0.420634 0.47619 L 0.420634 0.492065 L 0.404763 0.5 L 0.388889 0.492065 L 0.388889 0.47619 L 0.404763 0.468254 L 0.404763 0.45238 L 0.388889 0.444444 L 0.388889 0.42857 L 0.404763 0.420634 L 0.420634 0.42857 L 0.436509 0.420634 L 0.436509 0.404763 L 0.420634 0.396824 L 0.404763 0.404763 L 0.388889 0.396824 L 0.388889 0.380953 L 0.404763 0.373014 L 0.404763 0.357143 L 0.388889 0.349208 L 0.388889 0.333333 L 0.404763 0.325398 L 0.420634 0.333333 L 0.420634 0.349208 L 0.436509 0.357143 L 0.45238 0.349208 L 0.45238 0.333333 L 0.468254 0.325398 L 0.484125 0.333333 L 0.5 0.325398 L 0.5 0.309523 L 0.484125 0.301588 L 0.468254 0.309523 L 0.45238 0.301588 L 0.45238 0.285713 L 0.436509 0.277778 L 0.420634 0.285713 L 0.420634 0.301588 L 0.404763 0.309523 L 0.388889 0.301588 L 0.388889 0.285713 L 0.404763 0.277778 L 0.404763 0.261903 L 0.388889 0.253968 L 0.388889 0.238097 L 0.404763 0.230158 L 0.420634 0.238097 L 0.436509 0.230158 L 0.436509 0.214287 L 0.420634 0.206348 L 0.404763 0.214287 L 0.388889 0.206348 L 0.388889 0.190477 L 0.404763 0.182541 L 0.404763 0.166667 L 0.388889 0.158731 L 0.388889 0.142857 L 0.404763 0.134921 L 0.420634 0.142857 L 0.420634 0.158731 L 0.436509 0.166667 L 0.45238 0.158731 L 0.468254 0.166667 L 0.468254 0.182541 L 0.45238 0.190477 L 0.45238 0.206348 L 0.468254 0.214287 L 0.484125 0.206348 L 0.484125 0.190477 L 0.5 0.182541 L 0.515875 0.190477 L 0.531746 0.182541 L 0.531746 0.166667 L 0.515875 0.158731 L 0.515875 0.142857 L 0.531746 0.134921 L 0.54762 0.142857 L 0.54762 0.158731 L 0.563491 0.166667 L 0.579366 0.158731 L 0.579366 0.142857 L 0.595237 0.134921 L 0.611111 0.142857 L 0.626986 0.134921 L 0.626986 0.119047 L 0.611111 0.111111 L 0.595237 0.119047 L 0.579366 0.111111 L 0.579366 0.0952365 L 0.563491 0.0873011 L 0.54762 0.0952365 L 0.54762 0.111111 L 0.531746 0.119047 L 0.515875 0.111111 L 0.515875 0.0952365 L 0.531746 0.0873011 L 0.531746 0.0714301 L 0.515875 0.063491 L 0.5 0.0714301 L 0.484125 0.063491 L 0.484125 0.0476201 L 0.468254 0.039681 L 0.45238 0.0476201 L 0.45238 0.063491 L 0.468254 0.0714301 L 0.468254 0.0873011 L 0.45238 0.0952365 L 0.436509 0.0873011 L 0.420634 0.0952365 L 0.420634 0.111111 L 0.404763 0.119047 L 0.388889 0.111111 L 0.388889 0.0952365 L 0.404763 0.0873011 L 0.404763 0.0714301 L 0.388889 0.063491 L 0.388889 0.0476201 L 0.404763 0.039681 L 0.420634 0.0476201 L 0.436509 0.039681 L 0.436509 0.02381 L 0.420634 0.0158746 L 0.404763 0.02381 L 0.388889 0.0158746 L 0.388889 0 " transform="matrix(1080,0,0,1080,0,0)"/>
</g>
</svg>
